<svg width="400" height="50" viewBox="0 0 399 50" fill="none" xmlns="http://www.w3.org/2000/svg">
<path d="M35.144 39H27.416L26.84 25.992C26.68 22.888 26.6 20.12 26.6 17.688C26.6 15.832 26.648 14.072 26.744 12.408L21.608 35.496H14.168L8.69598 12.408C8.88798 15.192 8.98398 17.816 8.98398 20.28C8.98398 22.136 8.93598 24.072 8.83998 26.088L8.26398 39H0.583984L3.07998 5.73599H13.016L18.008 28.296L22.664 5.73599H32.648L35.144 39Z" fill="black"/>
<path d="M59.9664 31.608C59.9664 32.568 60.0944 33.272 60.3504 33.72C60.6384 34.168 61.0864 34.504 61.6944 34.728L60.1104 39.672C58.5424 39.544 57.2624 39.208 56.2704 38.664C55.2784 38.088 54.5104 37.192 53.9664 35.976C52.3024 38.536 49.7424 39.816 46.2864 39.816C43.7584 39.816 41.7424 39.08 40.2384 37.608C38.7344 36.136 37.9824 34.216 37.9824 31.848C37.9824 29.064 39.0064 26.936 41.0544 25.464C43.1024 23.992 46.0624 23.256 49.9344 23.256H52.5264V22.152C52.5264 20.648 52.2064 19.624 51.5664 19.08C50.9264 18.504 49.8064 18.216 48.2064 18.216C47.3744 18.216 46.3664 18.344 45.1824 18.6C43.9984 18.824 42.7824 19.144 41.5344 19.56L39.8064 14.568C41.4064 13.96 43.0384 13.496 44.7024 13.176C46.3984 12.856 47.9664 12.696 49.4064 12.696C53.0544 12.696 55.7264 13.448 57.4224 14.952C59.1184 16.456 59.9664 18.712 59.9664 21.72V31.608ZM48.4944 34.392C50.2224 34.392 51.5664 33.576 52.5264 31.944V27.432H50.6544C48.9264 27.432 47.6304 27.736 46.7664 28.344C45.9344 28.952 45.5184 29.896 45.5184 31.176C45.5184 32.2 45.7744 33 46.2864 33.576C46.8304 34.12 47.5664 34.392 48.4944 34.392Z" fill="black"/>
<path d="M81.9912 37.8C81.0632 38.44 79.9752 38.936 78.7272 39.288C77.5112 39.64 76.2952 39.816 75.0792 39.816C69.5112 39.784 66.7272 36.712 66.7272 30.6V18.792H63.1272V13.512H66.7272V7.99199L74.3112 7.12799V13.512H80.1672L79.3512 18.792H74.3112V30.504C74.3112 31.688 74.5032 32.536 74.8872 33.048C75.2712 33.56 75.8792 33.816 76.7112 33.816C77.5752 33.816 78.4872 33.544 79.4472 33L81.9912 37.8Z" fill="black"/>
<path d="M99.4509 12.696C101.659 12.696 103.387 13.368 104.635 14.712C105.883 16.056 106.507 17.944 106.507 20.376V39H98.9229V21.672C98.9229 20.392 98.7149 19.512 98.2989 19.032C97.8829 18.52 97.2909 18.264 96.5229 18.264C94.9869 18.264 93.5149 19.352 92.1069 21.528V39H84.5229V3.38399L92.1069 2.61599V16.248C93.1629 15.064 94.2829 14.184 95.4669 13.608C96.6509 13 97.9789 12.696 99.4509 12.696Z" fill="black"/>
<path d="M134.45 25.752C134.45 26.808 134.402 27.72 134.306 28.488H118.514C118.77 30.632 119.378 32.136 120.338 33C121.298 33.864 122.626 34.296 124.322 34.296C125.346 34.296 126.338 34.12 127.298 33.768C128.258 33.384 129.298 32.808 130.418 32.04L133.538 36.264C130.562 38.632 127.25 39.816 123.602 39.816C119.474 39.816 116.306 38.6 114.098 36.168C111.89 33.736 110.786 30.472 110.786 26.376C110.786 23.784 111.25 21.464 112.178 19.416C113.106 17.336 114.466 15.704 116.258 14.52C118.05 13.304 120.194 12.696 122.69 12.696C126.37 12.696 129.25 13.848 131.33 16.152C133.41 18.456 134.45 21.656 134.45 25.752ZM127.01 23.592C126.946 19.688 125.57 17.736 122.882 17.736C121.57 17.736 120.546 18.216 119.81 19.176C119.106 20.136 118.674 21.72 118.514 23.928H127.01V23.592Z" fill="black"/>
<path d="M160.214 39H153.638L153.302 35.784C151.446 38.472 148.87 39.816 145.574 39.816C143.238 39.816 141.462 39.112 140.246 37.704C139.062 36.296 138.47 34.328 138.47 31.8V13.512H146.054V30.84C146.054 32.088 146.246 32.968 146.63 33.48C147.046 33.96 147.67 34.2 148.502 34.2C150.102 34.2 151.478 33.208 152.63 31.224V13.512H160.214V39Z" fill="black"/>
<path d="M175.155 12.696C176.979 12.696 178.691 12.968 180.291 13.512C181.891 14.056 183.299 14.824 184.515 15.816L181.731 20.088C179.651 18.776 177.555 18.12 175.443 18.12C174.451 18.12 173.683 18.296 173.139 18.648C172.627 18.968 172.371 19.432 172.371 20.04C172.371 20.52 172.483 20.92 172.707 21.24C172.963 21.528 173.459 21.832 174.195 22.152C174.931 22.472 176.067 22.856 177.603 23.304C180.259 24.072 182.227 25.08 183.507 26.328C184.819 27.544 185.475 29.24 185.475 31.416C185.475 33.144 184.979 34.648 183.987 35.928C182.995 37.176 181.635 38.136 179.907 38.808C178.179 39.48 176.259 39.816 174.147 39.816C172.003 39.816 170.003 39.48 168.147 38.808C166.323 38.136 164.771 37.208 163.491 36.024L167.187 31.896C169.331 33.56 171.587 34.392 173.955 34.392C175.107 34.392 176.003 34.184 176.643 33.768C177.315 33.352 177.651 32.76 177.651 31.992C177.651 31.384 177.523 30.904 177.267 30.552C177.011 30.2 176.515 29.88 175.779 29.592C175.043 29.272 173.875 28.888 172.275 28.44C169.747 27.704 167.859 26.68 166.611 25.368C165.363 24.056 164.739 22.424 164.739 20.472C164.739 19 165.155 17.688 165.987 16.536C166.851 15.352 168.067 14.424 169.635 13.752C171.235 13.048 173.075 12.696 175.155 12.696Z" fill="black"/>
<path d="M218.773 39V24.744H208.789V39H200.917V5.73599H208.789V18.6H218.773V5.73599H226.645V39H218.773Z" fill="black"/>
<path d="M254.966 25.752C254.966 26.808 254.918 27.72 254.822 28.488H239.03C239.286 30.632 239.894 32.136 240.854 33C241.814 33.864 243.142 34.296 244.838 34.296C245.862 34.296 246.854 34.12 247.814 33.768C248.774 33.384 249.814 32.808 250.934 32.04L254.054 36.264C251.078 38.632 247.766 39.816 244.118 39.816C239.99 39.816 236.822 38.6 234.614 36.168C232.406 33.736 231.302 30.472 231.302 26.376C231.302 23.784 231.766 21.464 232.694 19.416C233.622 17.336 234.982 15.704 236.774 14.52C238.566 13.304 240.71 12.696 243.206 12.696C246.886 12.696 249.766 13.848 251.846 16.152C253.926 18.456 254.966 21.656 254.966 25.752ZM247.526 23.592C247.462 19.688 246.086 17.736 243.398 17.736C242.086 17.736 241.062 18.216 240.326 19.176C239.622 20.136 239.19 21.72 239.03 23.928H247.526V23.592Z" fill="black"/>
<path d="M274.154 12.696C276.362 12.696 278.09 13.368 279.338 14.712C280.586 16.056 281.21 17.944 281.21 20.376V39H273.626V21.672C273.626 20.392 273.418 19.512 273.002 19.032C272.618 18.52 272.026 18.264 271.226 18.264C269.69 18.264 268.218 19.368 266.81 21.576V39H259.226V13.512H265.85L266.378 16.536C267.466 15.256 268.634 14.296 269.882 13.656C271.162 13.016 272.586 12.696 274.154 12.696Z" fill="black"/>
<path d="M300.753 12.792C301.681 12.792 302.529 12.904 303.297 13.128L302.097 20.472C301.137 20.248 300.369 20.136 299.793 20.136C298.289 20.136 297.137 20.664 296.337 21.72C295.569 22.744 294.961 24.296 294.513 26.376V39H286.929V13.512H293.553L294.177 18.456C294.753 16.696 295.617 15.32 296.769 14.328C297.953 13.304 299.281 12.792 300.753 12.792Z" fill="black"/>
<path d="M313.779 13.512V39H306.195V13.512H313.779ZM309.939 0.071991C311.251 0.071991 312.323 0.487991 313.155 1.31999C314.019 2.11999 314.451 3.14399 314.451 4.39199C314.451 5.63999 314.019 6.67999 313.155 7.51199C312.323 8.31199 311.251 8.71199 309.939 8.71199C308.627 8.71199 307.555 8.31199 306.723 7.51199C305.891 6.67999 305.475 5.63999 305.475 4.39199C305.475 3.14399 305.891 2.11999 306.723 1.31999C307.555 0.487991 308.627 0.071991 309.939 0.071991Z" fill="black"/>
<path d="M342.59 13.512V49.656L335.006 48.84V36.552C333.31 38.728 331.054 39.816 328.238 39.816C325.07 39.816 322.654 38.6 320.99 36.168C319.358 33.736 318.542 30.408 318.542 26.184C318.542 23.56 318.974 21.24 319.838 19.224C320.702 17.176 321.918 15.576 323.486 14.424C325.086 13.272 326.926 12.696 329.006 12.696C331.598 12.696 333.79 13.704 335.582 15.72L335.966 13.512H342.59ZM330.59 34.248C332.35 34.248 333.822 33.288 335.006 31.368V20.376C334.398 19.64 333.79 19.096 333.182 18.744C332.574 18.392 331.87 18.216 331.07 18.216C329.63 18.216 328.494 18.872 327.662 20.184C326.83 21.464 326.414 23.48 326.414 26.232C326.414 29.208 326.766 31.288 327.47 32.472C328.206 33.656 329.246 34.248 330.59 34.248Z" fill="black"/>
<path d="M370.027 39H363.451L363.115 35.784C361.259 38.472 358.683 39.816 355.387 39.816C353.051 39.816 351.275 39.112 350.059 37.704C348.875 36.296 348.283 34.328 348.283 31.8V13.512H355.867V30.84C355.867 32.088 356.059 32.968 356.443 33.48C356.859 33.96 357.483 34.2 358.315 34.2C359.915 34.2 361.291 33.208 362.443 31.224V13.512H370.027V39Z" fill="black"/>
<path d="M398.216 25.752C398.216 26.808 398.168 27.72 398.072 28.488H382.28C382.536 30.632 383.144 32.136 384.104 33C385.064 33.864 386.392 34.296 388.088 34.296C389.112 34.296 390.104 34.12 391.064 33.768C392.024 33.384 393.064 32.808 394.184 32.04L397.304 36.264C394.328 38.632 391.016 39.816 387.368 39.816C383.24 39.816 380.072 38.6 377.864 36.168C375.656 33.736 374.552 30.472 374.552 26.376C374.552 23.784 375.016 21.464 375.944 19.416C376.872 17.336 378.232 15.704 380.024 14.52C381.816 13.304 383.96 12.696 386.456 12.696C390.136 12.696 393.016 13.848 395.096 16.152C397.176 18.456 398.216 21.656 398.216 25.752ZM390.776 23.592C390.712 19.688 389.336 17.736 386.648 17.736C385.336 17.736 384.312 18.216 383.576 19.176C382.872 20.136 382.44 21.72 382.28 23.928H390.776V23.592Z" fill="black"/>
</svg>
